<?xml version="1.0" standalone="no"?>
<!DOCTYPE svg PUBLIC "-//W3C//DTD SVG 20010904//EN"
 "http://www.w3.org/TR/2001/REC-SVG-20010904/DTD/svg10.dtd">
<svg version="1.0" xmlns="http://www.w3.org/2000/svg"
 width="198.000000pt" height="150.000000pt" viewBox="0 0 198.000000 150.000000"
 preserveAspectRatio="xMidYMid meet">

<g transform="translate(0.000000,150.000000) scale(0.100000,-0.100000)"
fill="#000000" stroke="none">
<path d="M902 1158 c-7 -7 -12 -22 -12 -35 0 -17 -6 -23 -23 -23 -34 0 -47
-19 -47 -70 0 -25 5 -51 12 -58 8 -8 51 -12 128 -12 77 0 120 4 128 12 7 7 12
33 12 58 0 51 -13 70 -47 70 -17 0 -23 6 -23 23 0 34 -19 47 -70 47 -25 0 -51
-5 -58 -12z"/>
<path d="M705 1075 c-24 -23 -25 -30 -25 -147 l0 -123 115 -115 115 -115 -87
-87 -88 -88 228 0 228 0 24 25 25 24 0 301 0 301 -25 24 c-38 39 -45 32 -45
-46 0 -67 -2 -73 -34 -105 l-34 -34 -142 0 -142 0 -34 34 c-32 32 -34 38 -34
105 0 78 -7 85 -45 46z"/>
<path d="M610 667 l0 -57 -70 0 -70 0 0 -35 0 -35 70 0 70 0 0 -57 0 -57 70
69 c39 38 70 74 70 80 0 6 -31 42 -70 80 l-70 69 0 -57z"/>
</g>
</svg>
